<svg xmlns="http://www.w3.org/2000/svg" viewBox="0 0 41 41"><path stroke="#0f172a" d="M2 2.5h7m1 0h1m1 0h1m2 0h1m2 0h1m2 0h2m2 0h2m1 0h1m3 0h7m-37 1h1m5 0h1m1 0h1m1 0h1m1 0h4m1 0h2m2 0h2m2 0h2m3 0h1m5 0h1m-37 1h1m1 0h3m1 0h1m2 0h1m1 0h2m1 0h1m2 0h3m1 0h1m2 0h1m1 0h1m1 0h1m1 0h1m1 0h3m1 0h1m-37 1h1m1 0h3m1 0h1m2 0h1m2 0h2m1 0h1m1 0h1m1 0h3m3 0h1m1 0h2m1 0h1m1 0h3m1 0h1m-37 1h1m1 0h3m1 0h1m6 0h1m3 0h1m1 0h1m1 0h1m3 0h1m4 0h1m1 0h3m1 0h1m-37 1h1m5 0h1m2 0h3m2 0h1m3 0h1m1 0h2m3 0h2m1 0h1m1 0h1m5 0h1m-37 1h7m1 0h1m1 0h1m1 0h1m1 0h1m1 0h1m1 0h1m1 0h1m1 0h1m1 0h1m1 0h1m1 0h1m1 0h7m-28 1h1m4 0h1m3 0h3m6 0h2m-28 1h1m4 0h3m1 0h1m3 0h1m1 0h4m2 0h1m2 0h1m3 0h1m5 0h2m-36 1h2m1 0h1m5 0h1m1 0h4m1 0h3m1 0h3m1 0h3m1 0h1m1 0h3m1 0h2m-37 1h4m1 0h5m2 0h2m1 0h1m1 0h1m4 0h1m2 0h4m1 0h2m2 0h3m-37 1h2m8 0h5m2 0h1m1 0h1m2 0h2m2 0h3m1 0h1m2 0h1m2 0h1m-36 1h1m4 0h1m2 0h1m1 0h5m2 0h1m1 0h1m3 0h1m5 0h2m1 0h1m2 0h1m-37 1h1m1 0h1m1 0h1m2 0h2m3 0h1m2 0h2m3 0h2m1 0h2m1 0h1m1 0h2m1 0h1m2 0h2m-33 1h7m1 0h1m1 0h1m1 0h4m1 0h1m1 0h1m2 0h1m1 0h1m2 0h4m1 0h2m-37 1h3m1 0h1m2 0h4m1 0h1m2 0h1m5 0h3m7 0h1m1 0h3m-36 1h3m1 0h1m1 0h1m6 0h5m1 0h1m1 0h2m1 0h4m1 0h4m1 0h1m1 0h1m-36 1h1m1 0h1m3 0h3m1 0h5m2 0h1m1 0h2m5 0h1m3 0h1m1 0h1m-33 1h1m3 0h2m2 0h1m2 0h1m1 0h1m2 0h1m1 0h1m1 0h2m1 0h1m2 0h1m1 0h2m2 0h2m1 0h1m-36 1h1m2 0h2m3 0h1m4 0h1m2 0h4m1 0h2m2 0h1m1 0h4m1 0h1m-34 1h1m2 0h4m1 0h2m1 0h1m1 0h4m3 0h1m1 0h5m2 0h8m-36 1h1m2 0h1m3 0h1m3 0h1m3 0h1m2 0h5m1 0h5m1 0h3m-34 1h3m1 0h1m1 0h1m1 0h1m1 0h1m2 0h1m3 0h3m1 0h2m2 0h3m1 0h2m3 0h3m-37 1h4m1 0h1m2 0h4m1 0h1m2 0h1m1 0h1m3 0h1m3 0h2m2 0h2m1 0h1m1 0h1m-36 1h10m1 0h2m3 0h1m2 0h2m3 0h3m1 0h1m1 0h2m1 0h1m1 0h2m-37 1h3m1 0h1m5 0h1m5 0h1m1 0h2m3 0h2m2 0h2m2 0h1m3 0h1m-36 1h1m4 0h2m2 0h5m1 0h3m1 0h1m1 0h1m3 0h4m1 0h2m2 0h3m-37 1h1m1 0h1m2 0h1m1 0h3m2 0h2m1 0h1m4 0h1m7 0h2m3 0h4m-37 1h1m2 0h1m2 0h1m1 0h2m3 0h3m6 0h2m1 0h2m1 0h7m-27 1h4m1 0h1m3 0h1m2 0h1m1 0h2m1 0h2m1 0h1m3 0h2m1 0h1m-36 1h7m1 0h3m2 0h6m1 0h4m4 0h1m1 0h1m1 0h3m1 0h1m-37 1h1m5 0h1m3 0h1m1 0h2m1 0h1m1 0h1m1 0h1m2 0h2m2 0h3m3 0h2m-34 1h1m1 0h3m1 0h1m3 0h3m1 0h1m2 0h3m1 0h1m2 0h9m1 0h2m-36 1h1m1 0h3m1 0h1m2 0h1m2 0h2m1 0h1m1 0h1m6 0h1m1 0h1m3 0h1m3 0h2m-36 1h1m1 0h3m1 0h1m2 0h1m1 0h1m1 0h1m2 0h1m2 0h1m4 0h1m2 0h1m1 0h1m1 0h1m4 0h1m-37 1h1m5 0h1m1 0h3m1 0h1m1 0h4m1 0h2m1 0h1m1 0h1m1 0h1m1 0h1m1 0h1m1 0h2m2 0h1m-37 1h7m11 0h1m4 0h2m3 0h1m1 0h4m2 0h1"/></svg>
