<?xml version="1.0" encoding="UTF-8"?>
<svg id="Layer_1" xmlns="http://www.w3.org/2000/svg" viewBox="0 0 595.28 419.53">
  <path d="M334.08,102.14c-9.6,0-17.38-7.68-17.38-17.16s7.78-17.16,17.38-17.16,17.38,7.68,17.38,17.16-7.78,17.16-17.38,17.16ZM320.43,50.01c-11.16,0-20.2,8.93-20.2,19.94v99.61c0,11.01,9.04,19.94,20.2,19.94h85.6c18.62-.48,33.53-15.51,33.53-33.93s-14.63-33.92-33.69-33.92c-.64,0-2.09.02-2.73.05h-.05c-.89,0-1.74-.6-1.86-1.47-.15-1.06.68-1.97,1.73-1.97h3.05c18.73-.41,33.77-15.59,33.77-34.17s-15.47-34.11-34.56-34.11l-84.79.04ZM405.3,171.71c-9.6,0-17.38-7.68-17.38-17.16s7.78-17.16,17.38-17.16,17.38,7.68,17.38,17.16-7.78,17.16-17.38,17.16Z"/>
  <path d="M185.5,171.16c-9.2,0-16.66-7.46-16.66-16.66s7.46-16.66,16.66-16.66,16.66,7.46,16.66,16.66-7.46,16.66-16.66,16.66ZM272.01,189.51c10.67,0,19.32-8.65,19.32-19.32v-1.11c0-26.3-21.32-47.63-47.62-47.63h0c-1.03,0-1.85-.91-1.7-1.97.12-.87.95-1.47,1.83-1.47,26.23,0,47.49-21.26,47.49-47.49v-1.24c0-10.67-8.65-19.32-19.32-19.32h-100.91c-10.67,0-19.32,8.65-19.32,19.32v100.91c0,10.67,8.65,19.32,19.32,19.32h48.19s0-42.06,0-42.06c0-1.3,1.05-2.36,2.36-2.36s2.36,1.06,2.36,2.36v42.06h48Z"/>
  <path d="M421.48,200.95h-102.72c-10.17,0-18.41,8.24-18.41,18.41v104.08c0,9.42,7.64,17.06,17.06,17.06h50.34v-43.07c0-1.33,1.08-2.4,2.4-2.4s2.4,1.08,2.4,2.4v43.07h50.28c9.42,0,17.06-7.64,17.06-17.06v-104.08c0-10.17-8.24-18.41-18.41-18.41ZM361.42,285.22c-2.36-1.25-4.31-3.2-5.57-5.56-8.4-15.88,7.54-31.82,23.42-23.42,2.36,1.25,4.31,3.2,5.57,5.57,8.4,15.88-7.54,31.82-23.42,23.42Z"/>
  <path d="M281.83,253.71c5.13,0,9.28-4.16,9.28-9.28v-24.7c0-10.25-8.31-18.56-18.56-18.56h-101.98c-10.25,0-18.56,8.31-18.56,18.56v101.98c0,10.25,8.31,18.56,18.56,18.56h101.98c10.25,0,18.56-8.31,18.56-18.56v-54.88s0-.07,0-.1c-.05-4.52-3.89-8.1-8.41-8.1h-44.24v14.73s0,.03,0,.05v.09c0,1.3-1.05,2.36-2.36,2.36h-.23c-1.3,0-2.36-1.05-2.36-2.36v-17.42c0-1.3,1.05-2.36,2.36-2.36h45.96ZM181.29,322.38c-6.51-1.42-11.69-6.61-13.11-13.11-2.67-12.25,8.23-23.14,20.47-20.46,6.51,1.42,11.69,6.61,13.11,13.11,2.67,12.24-8.23,23.14-20.47,20.46Z"/>
  <g>
    <path d="M159.12,369.37l-2.23-3.22h-2.46v3.22h-2.67v-11.55h5c3.09,0,5.02,1.6,5.02,4.19,0,1.73-.87,3-2.38,3.65l2.59,3.71h-2.87ZM156.61,360h-2.18v4.03h2.18c1.63,0,2.46-.76,2.46-2.01s-.82-2.01-2.46-2.01Z"/>
    <path d="M174.4,369.37l-.02-6.93-3.4,5.71h-1.2l-3.38-5.56v6.78h-2.51v-11.55h2.21l4.32,7.18,4.26-7.18h2.19l.03,11.55h-2.51Z"/>
    <path d="M179.64,357.82h2.67v11.55h-2.67v-11.55Z"/>
    <path d="M187.45,360h-3.7v-2.18h10.07v2.18h-3.7v9.37h-2.67v-9.37Z"/>
    <path d="M210.51,366.22c0,2-1.58,3.15-4.62,3.15h-5.97v-11.55h5.64c2.89,0,4.37,1.2,4.37,3,0,1.15-.59,2.05-1.54,2.54,1.29.41,2.11,1.4,2.11,2.86ZM202.58,359.83v2.72h2.66c1.3,0,2.01-.46,2.01-1.37s-.71-1.35-2.01-1.35h-2.66ZM207.82,365.94c0-.97-.74-1.44-2.13-1.44h-3.12v2.86h3.12c1.39,0,2.13-.43,2.13-1.42Z"/>
    <path d="M211.81,363.6c0-3.43,2.67-5.97,6.32-5.97s6.32,2.53,6.32,5.97-2.69,5.97-6.32,5.97-6.32-2.54-6.32-5.97ZM221.75,363.6c0-2.19-1.55-3.7-3.61-3.7s-3.61,1.5-3.61,3.7,1.55,3.7,3.61,3.7,3.61-1.5,3.61-3.7Z"/>
    <path d="M233.91,366.9h-5.36l-1.02,2.47h-2.74l5.15-11.55h2.64l5.17,11.55h-2.81l-1.02-2.47ZM233.07,364.87l-1.83-4.42-1.83,4.42h3.66Z"/>
    <path d="M246.3,369.37l-2.23-3.22h-2.46v3.22h-2.67v-11.55h5c3.09,0,5.02,1.6,5.02,4.19,0,1.73-.87,3-2.38,3.65l2.59,3.71h-2.87ZM243.79,360h-2.18v4.03h2.18c1.63,0,2.46-.76,2.46-2.01s-.83-2.01-2.46-2.01Z"/>
    <path d="M251.06,357.82h5.25c3.78,0,6.37,2.28,6.37,5.78s-2.59,5.78-6.37,5.78h-5.25v-11.55ZM256.18,367.18c2.29,0,3.8-1.37,3.8-3.58s-1.5-3.58-3.8-3.58h-2.44v7.16h2.44Z"/>
    <path d="M277.16,363.42h2.44v4.69c-1.27.96-3.02,1.47-4.67,1.47-3.63,0-6.3-2.49-6.3-5.97s2.67-5.97,6.35-5.97c2.03,0,3.71.69,4.84,2l-1.72,1.58c-.84-.89-1.82-1.3-2.99-1.3-2.24,0-3.78,1.5-3.78,3.7s1.53,3.7,3.75,3.7c.73,0,1.4-.13,2.08-.49v-3.38Z"/>
    <path d="M289.69,366.9h-5.36l-1.02,2.47h-2.74l5.15-11.55h2.64l5.17,11.55h-2.81l-1.02-2.47ZM288.84,364.87l-1.83-4.42-1.83,4.42h3.66Z"/>
    <path d="M305.23,369.37l-.02-6.93-3.4,5.71h-1.2l-3.38-5.56v6.78h-2.51v-11.55h2.21l4.32,7.18,4.26-7.18h2.19l.03,11.55h-2.51Z"/>
    <path d="M319.42,367.23v2.15h-8.94v-11.55h8.73v2.15h-6.07v2.51h5.36v2.08h-5.36v2.67h6.29Z"/>
    <path d="M333.82,366.9h-5.36l-1.02,2.47h-2.74l5.15-11.55h2.64l5.17,11.55h-2.81l-1.02-2.47ZM332.98,364.87l-1.83-4.42-1.83,4.42h3.66Z"/>
    <path d="M337.94,368.23l.91-2.01c.97.71,2.43,1.2,3.81,1.2,1.58,0,2.23-.53,2.23-1.24,0-2.16-6.72-.68-6.72-4.97,0-1.96,1.58-3.6,4.87-3.6,1.45,0,2.94.35,4.01,1.02l-.83,2.03c-1.07-.61-2.18-.91-3.2-.91-1.58,0-2.19.59-2.19,1.32,0,2.13,6.72.66,6.72,4.9,0,1.93-1.6,3.58-4.9,3.58-1.83,0-3.68-.55-4.7-1.34Z"/>
    <path d="M348.47,368.23l.91-2.01c.97.71,2.43,1.2,3.81,1.2,1.58,0,2.23-.53,2.23-1.24,0-2.16-6.72-.68-6.72-4.97,0-1.96,1.58-3.6,4.87-3.6,1.45,0,2.94.35,4.01,1.02l-.83,2.03c-1.07-.61-2.18-.91-3.2-.91-1.58,0-2.19.59-2.19,1.32,0,2.13,6.72.66,6.72,4.9,0,1.93-1.6,3.58-4.9,3.58-1.83,0-3.68-.55-4.7-1.34Z"/>
    <path d="M359.17,363.6c0-3.43,2.67-5.97,6.32-5.97s6.32,2.53,6.32,5.97-2.69,5.97-6.32,5.97-6.32-2.54-6.32-5.97ZM369.11,363.6c0-2.19-1.55-3.7-3.61-3.7s-3.61,1.5-3.61,3.7,1.55,3.7,3.61,3.7,3.61-1.5,3.61-3.7Z"/>
    <path d="M373.1,363.6c0-3.48,2.67-5.97,6.27-5.97,2,0,3.66.73,4.75,2.05l-1.72,1.58c-.78-.89-1.75-1.35-2.9-1.35-2.16,0-3.7,1.52-3.7,3.7s1.53,3.7,3.7,3.7c1.15,0,2.13-.46,2.9-1.37l1.72,1.58c-1.09,1.34-2.76,2.06-4.77,2.06-3.58,0-6.25-2.49-6.25-5.97Z"/>
    <path d="M385.92,357.82h2.67v11.55h-2.67v-11.55Z"/>
    <path d="M398.94,366.9h-5.36l-1.02,2.47h-2.74l5.15-11.55h2.64l5.17,11.55h-2.81l-1.02-2.47ZM398.1,364.87l-1.83-4.42-1.83,4.42h3.66Z"/>
    <path d="M405.78,360h-3.7v-2.18h10.07v2.18h-3.7v9.37h-2.67v-9.37Z"/>
    <path d="M413.59,357.82h2.67v11.55h-2.67v-11.55Z"/>
    <path d="M418.27,363.6c0-3.43,2.67-5.97,6.32-5.97s6.32,2.53,6.32,5.97-2.69,5.97-6.32,5.97-6.32-2.54-6.32-5.97ZM428.21,363.6c0-2.19-1.55-3.7-3.61-3.7s-3.61,1.5-3.61,3.7,1.55,3.7,3.61,3.7,3.61-1.5,3.61-3.7Z"/>
    <path d="M443.52,357.82v11.55h-2.19l-5.76-7.01v7.01h-2.64v-11.55h2.21l5.74,7.01v-7.01h2.64Z"/>
  </g>
</svg>