<?xml version="1.0" encoding="UTF-8"?>
<svg id="Layer_1" xmlns="http://www.w3.org/2000/svg" viewBox="0 0 595.28 419.53">
  <path d="M192.48,173.1c-9.2,0-16.66-7.36-16.66-16.44s7.46-16.44,16.66-16.44,16.66,7.36,16.66,16.44-7.46,16.44-16.66,16.44ZM179.41,123.15c-10.69,0-19.36,8.55-19.36,19.1v95.45c0,10.55,8.67,19.1,19.35,19.1h82.03c17.84-.46,32.13-14.86,32.13-32.51s-14.02-32.5-32.28-32.5c-.62,0-2,.02-2.61.05h-.05c-.86,0-1.66-.57-1.78-1.41-.15-1.02.65-1.89,1.66-1.89h2.92c17.94-.39,32.36-14.94,32.36-32.74s-14.83-32.69-33.12-32.69l-81.25.04ZM260.73,239.77c-9.2,0-16.66-7.36-16.66-16.44s7.46-16.44,16.66-16.44,16.66,7.36,16.66,16.44-7.46,16.44-16.66,16.44Z"/>
  <path d="M50.29,239.24c-8.82,0-15.97-7.15-15.97-15.97s7.15-15.97,15.97-15.97,15.97,7.15,15.97,15.97-7.15,15.97-15.97,15.97ZM133.19,256.83c10.23,0,18.52-8.29,18.52-18.52v-1.06c0-25.2-20.43-45.63-45.63-45.63h0c-.99,0-1.77-.87-1.63-1.88.12-.83.91-1.41,1.76-1.41,25.13,0,45.51-20.37,45.51-45.51v-1.19c0-10.23-8.29-18.52-18.52-18.52H36.5c-10.23,0-18.52,8.29-18.52,18.52v96.69c0,10.23,8.29,18.52,18.52,18.52h46.18s0-40.3,0-40.3c0-1.25,1.01-2.26,2.26-2.26s2.26,1.01,2.26,2.26v40.3h46Z"/>
  <path d="M559.78,123.1h-98.43c-9.74,0-17.65,7.9-17.65,17.65v99.73c0,9.03,7.32,16.35,16.35,16.35h48.24v-41.27c0-1.27,1.03-2.3,2.3-2.3s2.3,1.03,2.3,2.3v41.27h48.18c9.03,0,16.35-7.32,16.35-16.35v-99.73c0-9.75-7.9-17.65-17.65-17.65ZM502.23,203.85c-2.27-1.2-4.13-3.07-5.33-5.33-8.05-15.22,7.22-30.49,22.44-22.44,2.27,1.2,4.13,3.07,5.33,5.33,8.05,15.22-7.22,30.49-22.44,22.44Z"/>
  <path d="M426.51,173.67c4.91,0,8.89-3.98,8.89-8.89v-23.67c0-9.82-7.96-17.79-17.79-17.79h-97.72c-9.82,0-17.79,7.96-17.79,17.79v97.72c0,9.82,7.96,17.79,17.79,17.79h97.72c9.82,0,17.79-7.96,17.79-17.79v-52.59s0-.07,0-.1c-.05-4.34-3.73-7.76-8.06-7.76h-42.39v14.12s0,.03,0,.05v.09c0,1.25-1.01,2.26-2.26,2.26h-.22c-1.25,0-2.26-1.01-2.26-2.26v-16.7c0-1.25,1.01-2.26,2.26-2.26h44.04ZM330.17,239.47c-6.23-1.36-11.2-6.33-12.56-12.56-2.56-11.73,7.88-22.18,19.62-19.61,6.23,1.36,11.2,6.33,12.56,12.57,2.56,11.73-7.88,22.17-19.62,19.61Z"/>
  <g>
    <path d="M31.96,296.04l-4.27-6.17h-4.71v6.17h-5.13v-22.15h9.59c5.92,0,9.62,3.07,9.62,8.04,0,3.32-1.68,5.76-4.55,6.99l4.97,7.12h-5.51ZM27.15,278.07h-4.18v7.72h4.18c3.13,0,4.71-1.46,4.71-3.86s-1.58-3.86-4.71-3.86Z"/>
    <path d="M61.26,296.04l-.03-13.29-6.52,10.95h-2.31l-6.49-10.66v13.01h-4.81v-22.15h4.24l8.29,13.76,8.16-13.76h4.21l.07,22.15h-4.81Z"/>
    <path d="M71.31,273.89h5.13v22.15h-5.13v-22.15Z"/>
    <path d="M86.27,278.07h-7.09v-4.18h19.3v4.18h-7.09v17.97h-5.12v-17.97Z"/>
    <path d="M130.5,290c0,3.83-3.04,6.04-8.86,6.04h-11.45v-22.15h10.82c5.54,0,8.39,2.31,8.39,5.76,0,2.21-1.14,3.92-2.94,4.87,2.47.79,4.05,2.69,4.05,5.47ZM115.28,277.75v5.22h5.09c2.5,0,3.86-.89,3.86-2.63s-1.36-2.59-3.86-2.59h-5.09ZM125.34,289.46c0-1.87-1.42-2.75-4.08-2.75h-5.98v5.47h5.98c2.66,0,4.08-.82,4.08-2.72Z"/>
    <path d="M132.99,284.97c0-6.58,5.13-11.45,12.12-11.45s12.12,4.84,12.12,11.45-5.16,11.46-12.12,11.46-12.12-4.87-12.12-11.46ZM152.04,284.97c0-4.21-2.97-7.09-6.93-7.09s-6.93,2.88-6.93,7.09,2.98,7.09,6.93,7.09,6.93-2.88,6.93-7.09Z"/>
    <path d="M175.36,291.3h-10.28l-1.96,4.75h-5.25l9.87-22.15h5.06l9.91,22.15h-5.38l-1.96-4.75ZM173.74,287.4l-3.51-8.48-3.51,8.48h7.03Z"/>
    <path d="M199.11,296.04l-4.27-6.17h-4.72v6.17h-5.12v-22.15h9.59c5.92,0,9.62,3.07,9.62,8.04,0,3.32-1.68,5.76-4.56,6.99l4.97,7.12h-5.51ZM194.31,278.07h-4.18v7.72h4.18c3.13,0,4.71-1.46,4.71-3.86s-1.58-3.86-4.71-3.86Z"/>
    <path d="M208.25,273.89h10.06c7.25,0,12.21,4.37,12.21,11.08s-4.97,11.08-12.21,11.08h-10.06v-22.15ZM218.06,291.83c4.4,0,7.28-2.63,7.28-6.87s-2.88-6.87-7.28-6.87h-4.68v13.73h4.68Z"/>
    <path d="M258.3,284.62h4.68v8.99c-2.44,1.83-5.79,2.82-8.96,2.82-6.96,0-12.09-4.78-12.09-11.46s5.12-11.45,12.18-11.45c3.89,0,7.12,1.33,9.27,3.83l-3.29,3.04c-1.61-1.71-3.48-2.5-5.73-2.5-4.3,0-7.25,2.88-7.25,7.09s2.94,7.09,7.18,7.09c1.39,0,2.69-.25,3.99-.95v-6.49Z"/>
    <path d="M282.31,291.3h-10.28l-1.96,4.75h-5.25l9.87-22.15h5.06l9.9,22.15h-5.38l-1.96-4.75ZM280.7,287.4l-3.51-8.48-3.51,8.48h7.02Z"/>
    <path d="M312.11,296.04l-.03-13.29-6.52,10.95h-2.31l-6.49-10.66v13.01h-4.81v-22.15h4.24l8.29,13.76,8.16-13.76h4.21l.07,22.15h-4.81Z"/>
    <path d="M339.32,291.93v4.11h-17.15v-22.15h16.74v4.11h-11.64v4.81h10.29v3.99h-10.29v5.12h12.06Z"/>
    <path d="M366.93,291.3h-10.28l-1.96,4.75h-5.25l9.87-22.15h5.06l9.91,22.15h-5.38l-1.96-4.75ZM365.32,287.4l-3.51-8.48-3.51,8.48h7.03Z"/>
    <path d="M374.83,293.86l1.74-3.86c1.87,1.36,4.65,2.31,7.31,2.31,3.04,0,4.27-1.01,4.27-2.37,0-4.14-12.88-1.3-12.88-9.53,0-3.77,3.04-6.9,9.33-6.9,2.79,0,5.63.66,7.69,1.96l-1.58,3.89c-2.06-1.17-4.18-1.74-6.14-1.74-3.04,0-4.21,1.14-4.21,2.53,0,4.08,12.88,1.26,12.88,9.4,0,3.7-3.07,6.87-9.4,6.87-3.51,0-7.06-1.05-9.02-2.56Z"/>
    <path d="M395.02,293.86l1.74-3.86c1.87,1.36,4.65,2.31,7.31,2.31,3.04,0,4.27-1.01,4.27-2.37,0-4.14-12.88-1.3-12.88-9.53,0-3.77,3.04-6.9,9.33-6.9,2.78,0,5.63.66,7.69,1.96l-1.58,3.89c-2.06-1.17-4.18-1.74-6.14-1.74-3.04,0-4.21,1.14-4.21,2.53,0,4.08,12.88,1.26,12.88,9.4,0,3.7-3.07,6.87-9.4,6.87-3.51,0-7.06-1.05-9.02-2.56Z"/>
    <path d="M415.55,284.97c0-6.58,5.13-11.45,12.12-11.45s12.12,4.84,12.12,11.45-5.16,11.46-12.12,11.46-12.12-4.87-12.12-11.46ZM434.6,284.97c0-4.21-2.97-7.09-6.93-7.09s-6.93,2.88-6.93,7.09,2.97,7.09,6.93,7.09,6.93-2.88,6.93-7.09Z"/>
    <path d="M442.25,284.97c0-6.68,5.12-11.45,12.02-11.45,3.83,0,7.02,1.39,9.11,3.92l-3.29,3.04c-1.49-1.71-3.35-2.59-5.57-2.59-4.15,0-7.09,2.91-7.09,7.09s2.94,7.09,7.09,7.09c2.21,0,4.08-.89,5.57-2.63l3.29,3.04c-2.09,2.56-5.28,3.96-9.14,3.96-6.87,0-11.99-4.78-11.99-11.46Z"/>
    <path d="M466.83,273.89h5.12v22.15h-5.12v-22.15Z"/>
    <path d="M491.79,291.3h-10.28l-1.96,4.75h-5.25l9.87-22.15h5.06l9.9,22.15h-5.38l-1.96-4.75ZM490.17,287.4l-3.51-8.48-3.51,8.48h7.02Z"/>
    <path d="M504.91,278.07h-7.09v-4.18h19.3v4.18h-7.09v17.97h-5.12v-17.97Z"/>
    <path d="M519.88,273.89h5.12v22.15h-5.12v-22.15Z"/>
    <path d="M528.86,284.97c0-6.58,5.12-11.45,12.12-11.45s12.12,4.84,12.12,11.45-5.16,11.46-12.12,11.46-12.12-4.87-12.12-11.46ZM547.91,284.97c0-4.21-2.97-7.09-6.93-7.09s-6.93,2.88-6.93,7.09,2.97,7.09,6.93,7.09,6.93-2.88,6.93-7.09Z"/>
    <path d="M577.26,273.89v22.15h-4.21l-11.04-13.45v13.45h-5.06v-22.15h4.24l11.01,13.45v-13.45h5.06Z"/>
  </g>
</svg>