<?xml version="1.0" encoding="UTF-8" standalone="no"?>
<!DOCTYPE svg PUBLIC "-//W3C//DTD SVG 1.1//EN" "http://www.w3.org/Graphics/SVG/1.1/DTD/svg11.dtd">
<svg width="100%" height="100%" viewBox="0 0 559 183" version="1.1" xmlns="http://www.w3.org/2000/svg" xmlns:xlink="http://www.w3.org/1999/xlink" xml:space="preserve" xmlns:serif="http://www.serif.com/" style="fill-rule:evenodd;clip-rule:evenodd;stroke-linejoin:round;stroke-miterlimit:2;">
    <g>
        <path d="M181.633,41.442C181.633,51.626 188.668,58.393 199.053,58.393C209.438,58.393 216.406,51.626 216.406,41.442L216.406,16.116C216.406,15.111 216.942,14.642 217.88,14.642L220.761,14.642L220.761,10.488L215.803,10.488C212.922,10.488 211.716,11.694 211.716,14.575L211.716,41.107C211.716,49.08 206.691,53.971 198.986,53.971C191.281,53.971 186.323,49.08 186.323,41.241L186.323,14.575C186.323,11.694 185.117,10.488 182.236,10.488L177.278,10.488L177.278,14.642L180.159,14.642C181.097,14.642 181.633,15.111 181.633,16.116L181.633,41.442Z" style="fill-rule:nonzero;"/>
        <path d="M223.909,57.589L228.867,57.589C231.748,57.589 232.954,56.383 232.954,53.502L232.954,24.022C232.954,21.543 232.552,17.925 232.552,17.925L232.686,17.925C232.686,17.925 234.897,21.744 236.572,24.022L260.625,57.589L264.913,57.589L264.913,16.116C264.913,15.111 265.449,14.642 266.387,14.642L269.268,14.642L269.268,10.488L264.31,10.488C261.429,10.488 260.223,11.694 260.223,14.575L260.223,44.055C260.223,46.534 260.558,50.219 260.558,50.219L260.424,50.219C260.424,50.219 258.213,46.4 256.605,44.055L232.552,10.488L228.264,10.488L228.264,51.961C228.264,52.966 227.728,53.435 226.79,53.435L223.909,53.435L223.909,57.589Z" style="fill-rule:nonzero;"/>
        <path d="M274.199,57.589L287.666,57.589L287.666,53.435L283.177,53.435L283.177,14.642L287.666,14.642L287.666,10.488L274.199,10.488L274.199,14.642L278.621,14.642L278.621,53.435L274.199,53.435L274.199,57.589Z" style="fill-rule:nonzero;"/>
        <path d="M310.124,57.589L315.149,57.589L330.626,16.116C331.095,14.843 331.765,14.642 333.038,14.642L333.641,14.642L333.641,10.488L331.631,10.488C328.281,10.488 327.276,11.091 326.07,14.374L314.479,46.065C313.608,48.477 312.67,52.162 312.67,52.162L312.536,52.162C312.536,52.162 311.598,48.477 310.727,46.065L299.136,14.374C297.997,11.158 296.992,10.488 293.642,10.488L291.565,10.488L291.565,14.642L292.235,14.642C293.508,14.642 294.178,14.843 294.647,16.116L310.124,57.589Z" style="fill-rule:nonzero;"/>
        <path d="M341.916,53.502C341.916,56.383 343.122,57.589 346.003,57.589L366.371,57.589C369.252,57.589 370.458,56.383 370.458,53.502L370.458,48.812L366.103,48.812L366.103,51.961C366.103,52.966 365.567,53.435 364.629,53.435L348.08,53.435C347.142,53.435 346.606,52.966 346.606,51.961L346.606,35.948L364.294,35.948L364.294,31.794L346.606,31.794L346.606,14.642L362.686,14.642C363.624,14.642 364.16,15.111 364.16,16.116L364.16,19.265L368.582,19.265L368.582,14.575C368.582,11.694 367.376,10.488 364.495,10.488L337.561,10.488L337.561,14.642L341.916,14.642L341.916,53.502Z" style="fill-rule:nonzero;"/>
        <path d="M378.149,57.589L382.839,57.589L382.839,37.757L390.745,37.757C393.358,37.757 394.229,38.092 395.502,40.571L402.269,54.038C403.81,57.12 404.949,57.589 408.768,57.589L410.845,57.589L410.845,53.435L409.907,53.435C408.232,53.435 407.227,53.301 406.557,51.894L399.79,38.494C399.12,37.154 398.182,36.618 398.182,36.618L398.182,36.484C402.805,35.479 407.294,31.191 407.294,23.888C407.294,15.714 401.666,10.488 393.76,10.488L373.794,10.488L373.794,14.642L378.149,14.642L378.149,57.589ZM382.839,33.603L382.839,14.642L393.358,14.642C398.919,14.642 402.403,18.193 402.403,24.022C402.403,29.918 398.919,33.603 393.291,33.603L382.839,33.603Z" style="fill-rule:nonzero;"/>
        <path d="M414.268,51.693C414.268,51.693 419.561,58.393 429.209,58.393C438.053,58.393 443.48,52.43 443.48,45.395C443.48,29.851 420.231,32.531 420.231,21.61C420.231,17.59 423.782,14.039 429.879,14.039C434.234,14.039 438.12,16.116 438.12,18.93L438.12,21.141L442.542,21.141L442.542,17.791C442.542,11.627 434.368,9.684 429.812,9.684C421.102,9.684 415.407,15.178 415.407,21.744C415.407,36.35 438.656,34.005 438.656,45.663C438.656,50.688 434.502,54.038 429.343,54.038C421.906,54.038 417.149,48.276 417.149,48.276L414.268,51.693Z" style="fill-rule:nonzero;"/>
        <path d="M448.237,57.589L461.704,57.589L461.704,53.435L457.215,53.435L457.215,14.642L461.704,14.642L461.704,10.488L448.237,10.488L448.237,14.642L452.659,14.642L452.659,53.435L448.237,53.435L448.237,57.589Z" style="fill-rule:nonzero;"/>
        <path d="M483.117,57.589L487.807,57.589L487.807,14.642L499.398,14.642C500.403,14.642 500.872,15.044 500.872,16.116L500.872,19.265L505.227,19.265L505.227,14.307C505.227,11.426 504.289,10.488 501.408,10.488L469.516,10.488C466.635,10.488 465.697,11.426 465.697,14.307L465.697,19.265L469.985,19.265L469.985,16.116C469.985,15.044 470.521,14.642 471.459,14.642L483.117,14.642L483.117,57.589Z" style="fill-rule:nonzero;"/>
        <path d="M525.052,57.589L529.742,57.589L529.742,37.087L542.405,16.384C543.209,14.977 544.147,14.642 545.487,14.642L546.559,14.642L546.559,10.488L544.75,10.488C541.534,10.488 540.328,10.957 538.318,14.24L530.345,27.573C528.871,30.052 527.464,32.866 527.464,32.866L527.33,32.866C527.33,32.866 525.923,30.052 524.449,27.573L516.476,14.24C514.466,10.957 513.26,10.488 510.044,10.488L508.235,10.488L508.235,14.642L509.307,14.642C510.714,14.642 511.585,14.977 512.456,16.384L525.052,37.087L525.052,57.589Z" style="fill-rule:nonzero;"/>
        <path d="M7.133,58.058L15.91,58.058L15.91,40.303L20.332,40.303C22.811,40.303 23.816,40.638 24.821,42.514L30.918,54.507C32.459,57.522 34,58.058 37.551,58.058L42.174,58.058L42.174,50.621L41.303,50.621C39.829,50.621 38.69,50.487 37.953,49.08L33.33,39.901C32.459,38.159 30.985,37.489 30.985,37.489L30.985,37.355C32.995,36.953 38.891,33.402 38.891,24.826C38.891,15.848 32.794,10.488 24.084,10.488L2.778,10.488L2.778,17.925L7.133,17.925L7.133,58.058ZM15.91,32.799L15.91,17.925L23.012,17.925C27.3,17.925 29.913,20.605 29.913,25.295C29.913,30.052 27.3,32.799 22.878,32.799L15.91,32.799Z" style="fill-rule:nonzero;"/>
        <path d="M44.812,58.058L52.383,58.058C55.532,58.058 56.671,56.718 56.939,53.502L58.48,32.33C58.748,29.181 58.547,24.893 58.547,24.893L58.681,24.893C58.681,24.893 60.088,29.65 61.294,32.33L69.2,49.884L76.302,49.884L84.208,32.33C85.414,29.65 86.821,24.96 86.821,24.96L86.955,24.96C86.955,24.96 86.754,29.181 87.022,32.33L88.63,53.502C88.898,56.718 89.97,58.058 93.119,58.058L100.69,58.058L100.69,50.621L98.613,50.621C97.675,50.621 97.206,50.085 97.139,49.147L94.057,10.488L84.945,10.488L75.163,33.134C74.024,35.881 72.818,39.499 72.818,39.499L72.684,39.499C72.684,39.499 71.478,35.881 70.339,33.134L60.557,10.488L51.445,10.488L48.363,49.147C48.296,50.085 47.827,50.621 46.889,50.621L44.812,50.621L44.812,58.058Z" style="fill-rule:nonzero;"/>
        <path d="M104.469,58.058L122.291,58.058L122.291,50.621L117.534,50.621L117.534,17.925L122.291,17.925L122.291,10.488L104.469,10.488L104.469,17.925L109.226,17.925L109.226,50.621L104.469,50.621L104.469,58.058Z" style="fill-rule:nonzero;"/>
        <path d="M142.102,58.058L150.879,58.058L150.879,17.925L158.182,17.925C159.12,17.925 159.656,18.461 159.656,19.399L159.656,22.28L167.361,22.28L167.361,14.776C167.361,11.627 166.289,10.488 163.073,10.488L129.908,10.488C126.692,10.488 125.62,11.627 125.62,14.776L125.62,22.28L133.325,22.28L133.325,19.399C133.325,18.461 133.861,17.925 134.799,17.925L142.102,17.925L142.102,58.058Z" style="fill-rule:nonzero;"/>
        <path d="M2.208,108.715C2.208,108.715 8.211,116.305 19.044,116.305C29.325,116.305 35.328,109.681 35.328,101.884C35.328,85.807 12.282,87.463 12.282,79.114C12.282,76.009 15.318,73.87 19.458,73.87C22.701,73.87 25.944,75.388 25.944,77.665L25.944,79.873L34.086,79.873L34.086,75.319C34.086,68.35 25.254,65.659 19.527,65.659C10.074,65.659 3.174,71.524 3.174,79.459C3.174,94.708 26.22,94.018 26.22,102.367C26.22,106.162 22.908,108.163 19.182,108.163C12.351,108.163 7.314,102.367 7.314,102.367L2.208,108.715Z" style="fill:rgb(104,47,146);fill-rule:nonzero;"/>
        <path d="M55.034,115.478L64.073,115.478L64.073,74.146L71.594,74.146C72.56,74.146 73.112,74.698 73.112,75.664L73.112,78.631L81.047,78.631L81.047,70.903C81.047,67.66 79.943,66.487 76.631,66.487L42.476,66.487C39.164,66.487 38.06,67.66 38.06,70.903L38.06,78.631L45.995,78.631L45.995,75.664C45.995,74.698 46.547,74.146 47.513,74.146L55.034,74.146L55.034,115.478Z" style="fill:rgb(104,47,146);fill-rule:nonzero;"/>
        <path d="M88.644,98.021C88.644,108.854 96.303,116.306 107.964,116.306C119.487,116.306 127.146,108.854 127.146,98.021L127.146,75.665C127.146,74.699 127.698,74.147 128.664,74.147L131.631,74.147L131.631,66.488L122.799,66.488C119.487,66.488 118.107,67.937 118.107,71.18L118.107,97.676C118.107,104.162 114.036,107.888 107.895,107.888C101.754,107.888 97.683,104.162 97.683,97.745L97.683,71.18C97.683,67.937 96.303,66.488 92.991,66.488L84.159,66.488L84.159,74.147L87.126,74.147C88.092,74.147 88.644,74.699 88.644,75.665L88.644,98.021Z" style="fill:rgb(104,47,146);fill-rule:nonzero;"/>
        <path d="M139.855,110.786C139.855,114.098 141.235,115.478 144.547,115.478L155.311,115.478C170.422,115.478 180.289,106.37 180.289,90.914C180.289,75.458 170.422,66.488 155.311,66.488L135.37,66.488L135.37,74.147L139.855,74.147L139.855,110.786ZM148.894,106.301L148.894,74.147L154.828,74.147C164.488,74.147 170.905,80.012 170.905,90.914C170.905,101.954 164.626,107.819 154.828,107.819L150.412,107.819C149.446,107.819 148.894,107.267 148.894,106.301Z" style="fill:rgb(104,47,146);fill-rule:nonzero;"/>
        <path d="M187.906,110.786C187.906,114.098 189.286,115.478 192.598,115.478L214.816,115.478C218.059,115.478 219.508,114.098 219.508,110.786L219.508,103.334L211.297,103.334L211.297,106.301C211.297,107.267 210.745,107.819 209.779,107.819L198.463,107.819C197.497,107.819 196.945,107.267 196.945,106.301L196.945,94.64L212.815,94.64L212.815,86.981L196.945,86.981L196.945,74.147L207.985,74.147C208.951,74.147 209.503,74.699 209.503,75.665L209.503,78.632L217.714,78.632L217.714,71.18C217.714,67.937 216.265,66.488 213.022,66.488L183.421,66.488L183.421,74.147L187.906,74.147L187.906,110.786Z" style="fill:rgb(104,47,146);fill-rule:nonzero;"/>
        <path d="M223.234,115.478L232.066,115.478C235.378,115.478 236.758,114.098 236.758,110.786L236.758,88.43C236.758,85.601 236.275,81.53 236.275,81.53L236.413,81.53C236.413,81.53 238.552,85.67 240.484,88.43L259.114,115.478L267.187,115.478L267.187,75.665C267.187,74.699 267.739,74.147 268.705,74.147L271.672,74.147L271.672,66.488L262.84,66.488C259.528,66.488 258.148,67.937 258.148,71.18L258.148,93.605C258.148,96.434 258.631,100.505 258.631,100.505L258.493,100.505C258.493,100.505 256.354,96.434 254.422,93.605L235.861,66.488L227.719,66.488L227.719,106.301C227.719,107.267 227.167,107.819 226.201,107.819L223.234,107.819L223.234,115.478Z" style="fill:rgb(104,47,146);fill-rule:nonzero;"/>
        <path d="M292.047,115.478L301.086,115.478L301.086,74.147L308.607,74.147C309.573,74.147 310.125,74.699 310.125,75.665L310.125,78.632L318.06,78.632L318.06,70.904C318.06,67.661 316.956,66.488 313.644,66.488L279.489,66.488C276.177,66.488 275.073,67.661 275.073,70.904L275.073,78.632L283.008,78.632L283.008,75.665C283.008,74.699 283.56,74.147 284.526,74.147L292.047,74.147L292.047,115.478Z" style="fill:rgb(104,47,146);fill-rule:nonzero;"/>
        <path d="M332.732,99.403C332.732,109.739 339.872,116.607 350.412,116.607C360.952,116.607 368.024,109.739 368.024,99.403L368.024,73.699C368.024,72.679 368.568,72.203 369.52,72.203L372.444,72.203L372.444,67.987L367.412,67.987C364.488,67.987 363.264,69.211 363.264,72.135L363.264,99.063C363.264,107.155 358.164,112.119 350.344,112.119C342.524,112.119 337.492,107.155 337.492,99.199L337.492,72.135C337.492,69.211 336.268,67.987 333.344,67.987L328.312,67.987L328.312,72.203L331.236,72.203C332.188,72.203 332.732,72.679 332.732,73.699L332.732,99.403Z" style="fill:rgb(104,47,146);fill-rule:nonzero;"/>
        <path d="M377.067,115.792L382.099,115.792C385.023,115.792 386.247,114.568 386.247,111.644L386.247,81.724C386.247,79.208 385.839,75.536 385.839,75.536L385.975,75.536C385.975,75.536 388.219,79.412 389.919,81.724L414.331,115.792L418.683,115.792L418.683,73.7C418.683,72.68 419.227,72.204 420.179,72.204L423.103,72.204L423.103,67.988L418.071,67.988C415.147,67.988 413.923,69.212 413.923,72.136L413.923,102.056C413.923,104.572 414.263,108.312 414.263,108.312L414.127,108.312C414.127,108.312 411.883,104.436 410.251,102.056L385.839,67.988L381.487,67.988L381.487,110.08C381.487,111.1 380.943,111.576 379.991,111.576L377.067,111.576L377.067,115.792Z" style="fill:rgb(104,47,146);fill-rule:nonzero;"/>
        <path d="M429.529,115.792L443.197,115.792L443.197,111.576L438.641,111.576L438.641,72.204L443.197,72.204L443.197,67.988L429.529,67.988L429.529,72.204L434.017,72.204L434.017,111.576L429.529,111.576L429.529,115.792Z" style="fill:rgb(104,47,146);fill-rule:nonzero;"/>
        <path d="M448.46,91.584C448.46,105.592 459.204,116.608 472.804,116.608C486.336,116.608 497.148,105.592 497.148,91.584C497.148,77.848 486.336,67.172 472.804,67.172C459.204,67.172 448.46,77.848 448.46,91.584ZM453.424,91.584C453.424,80.296 462.06,71.66 472.804,71.66C483.48,71.66 492.184,80.296 492.184,91.584C492.184,103.144 483.48,112.12 472.804,112.12C462.06,112.12 453.424,103.144 453.424,91.584Z" style="fill:rgb(104,47,146);fill-rule:nonzero;"/>
        <path d="M502.403,115.792L507.435,115.792C510.359,115.792 511.583,114.568 511.583,111.644L511.583,81.724C511.583,79.208 511.175,75.536 511.175,75.536L511.311,75.536C511.311,75.536 513.555,79.412 515.255,81.724L539.668,115.792L544.02,115.792L544.02,73.7C544.02,72.68 544.564,72.204 545.516,72.204L548.44,72.204L548.44,67.988L543.408,67.988C540.484,67.988 539.26,69.212 539.26,72.136L539.26,102.056C539.26,104.572 539.6,108.312 539.6,108.312L539.464,108.312C539.464,108.312 537.22,104.436 535.588,102.056L511.175,67.988L506.823,67.988L506.823,110.08C506.823,111.1 506.279,111.576 505.327,111.576L502.403,111.576L502.403,115.792Z" style="fill:rgb(104,47,146);fill-rule:nonzero;"/>
        <path d="M209.224,153.76L212.488,164.3L216.976,162.668L205.824,127.988L199.976,127.988L188.824,162.668L193.312,164.3L196.644,153.76L209.224,153.76ZM207.932,149.68L197.868,149.68L202.9,133.292L207.932,149.68Z" style="fill-rule:nonzero;"/>
        <path d="M236.763,163.417L241.319,163.417L241.319,146.757L256.211,146.757L256.211,142.677L241.319,142.677L241.319,132.069L259.067,132.069L259.067,127.989L236.763,127.989L236.763,163.417Z" style="fill-rule:nonzero;"/>
        <path d="M278.943,163.417L283.499,163.417L283.499,146.757L298.391,146.757L298.391,142.677L283.499,142.677L283.499,132.069L301.247,132.069L301.247,127.989L278.943,127.989L278.943,163.417Z" style="fill-rule:nonzero;"/>
        <path d="M321.653,163.417L336.205,163.417L336.205,159.337L331.173,159.337L331.173,132.069L336.205,132.069L336.205,127.989L321.653,127.989L321.653,132.069L326.617,132.069L326.617,159.337L321.653,159.337L321.653,163.417Z" style="fill-rule:nonzero;"/>
        <path d="M358.998,163.417L382.118,163.417L382.118,159.337L363.554,159.337L363.554,127.989L358.998,127.989L358.998,163.417Z" style="fill-rule:nonzero;"/>
        <path d="M402.334,163.417L416.886,163.417L416.886,159.337L411.854,159.337L411.854,132.069L416.886,132.069L416.886,127.989L402.334,127.989L402.334,132.069L407.298,132.069L407.298,159.337L402.334,159.337L402.334,163.417Z" style="fill-rule:nonzero;"/>
        <path d="M457.596,153.761L460.86,164.301L465.348,162.669L454.196,127.989L448.348,127.989L437.196,162.669L441.684,164.301L445.016,153.761L457.596,153.761ZM456.304,149.681L446.24,149.681L451.272,133.293L456.304,149.681Z" style="fill-rule:nonzero;"/>
        <path d="M488.121,163.417L492.677,163.417L492.677,132.069L502.265,132.069L502.265,127.989L478.329,127.989L478.329,132.069L488.121,132.069L488.121,163.417Z" style="fill-rule:nonzero;"/>
        <path d="M522.421,163.417L544.521,163.417L544.521,159.337L526.977,159.337L526.977,146.757L541.461,146.757L541.461,142.677L526.977,142.677L526.977,132.069L544.521,132.069L544.521,127.989L522.421,127.989L522.421,163.417Z" style="fill-rule:nonzero;"/>
    </g>
</svg>
